<svg width="501" height="134" viewBox="0 0 501 134" fill="none" xmlns="http://www.w3.org/2000/svg">
<rect width="135" height="134" rx="2" fill="white"/>
<path d="M109.687 59.1586L109.677 60.019C109.217 78.0315 94.3612 92.4936 76.1034 92.4936C57.5561 92.4933 42.5206 77.5686 42.5204 59.1586C42.5204 40.7485 57.556 25.8239 76.1034 25.8237H107.687C108.792 25.8237 109.687 26.7191 109.687 27.8237V59.1586Z" fill="#7829DF"/>
<g filter="url(#filter0_f_1_5)">
<path d="M24.6097 81.3791L24.6185 82.0676C24.9865 96.4774 36.87 108.047 51.4759 108.047C66.314 108.047 78.343 96.1072 78.3431 81.3791C78.3431 66.6511 66.3148 54.7115 51.4769 54.7112H26.6097C25.5051 54.7112 24.6097 55.6066 24.6097 56.7112V81.3791Z" fill="#D4BAF4" fill-opacity="0.3"/>
</g>
<path d="M26.8483 81.3783L26.8561 82.0092C27.1931 95.2185 38.0871 105.824 51.4762 105.824C65.0778 105.824 76.1042 94.8792 76.1042 81.3783C76.1041 67.8775 65.0778 56.933 51.4762 56.933H28.8483C27.7437 56.933 26.8483 57.8284 26.8483 58.933V81.3783Z" fill="#C7A7F1"/>
<path d="M174.638 42.2344V92H166.059V42.2344H174.638ZM204.545 42.2344L184.379 66.1943L172.895 78.3623L171.391 69.8516L179.594 59.7344L194.086 42.2344H204.545ZM195.316 92L178.944 68.416L184.857 62.5713L205.502 92H195.316ZM218.435 55.0176V92H210.164V55.0176H218.435ZM209.617 45.3105C209.617 44.0573 210.027 43.0205 210.847 42.2002C211.69 41.3571 212.852 40.9355 214.334 40.9355C215.792 40.9355 216.943 41.3571 217.786 42.2002C218.629 43.0205 219.05 44.0573 219.05 45.3105C219.05 46.541 218.629 47.5664 217.786 48.3867C216.943 49.207 215.792 49.6172 214.334 49.6172C212.852 49.6172 211.69 49.207 210.847 48.3867C210.027 47.5664 209.617 46.541 209.617 45.3105ZM250.167 84.3438V39.5H258.439V92H250.953L250.167 84.3438ZM226.105 73.9189V73.2012C226.105 70.3984 226.435 67.8464 227.096 65.5449C227.757 63.2207 228.714 61.2269 229.967 59.5635C231.22 57.8773 232.747 56.5898 234.547 55.7012C236.347 54.7897 238.375 54.334 240.631 54.334C242.864 54.334 244.824 54.7669 246.51 55.6328C248.196 56.4987 249.632 57.7406 250.817 59.3584C252.001 60.9535 252.947 62.8675 253.654 65.1006C254.36 67.3109 254.861 69.7718 255.157 72.4834V74.7734C254.861 77.4167 254.36 79.832 253.654 82.0195C252.947 84.207 252.001 86.0983 250.817 87.6934C249.632 89.2884 248.185 90.5189 246.476 91.3848C244.79 92.2507 242.819 92.6836 240.563 92.6836C238.33 92.6836 236.313 92.2165 234.513 91.2822C232.736 90.348 231.22 89.0378 229.967 87.3516C228.714 85.6654 227.757 83.6829 227.096 81.4043C226.435 79.1029 226.105 76.6077 226.105 73.9189ZM234.342 73.2012V73.9189C234.342 75.6051 234.49 77.1774 234.786 78.6357C235.105 80.0941 235.595 81.3815 236.256 82.498C236.917 83.5918 237.771 84.4577 238.82 85.0957C239.89 85.7109 241.167 86.0186 242.648 86.0186C244.516 86.0186 246.054 85.6084 247.262 84.7881C248.47 83.9678 249.415 82.8626 250.099 81.4727C250.805 80.0599 251.284 78.4876 251.534 76.7559V70.5693C251.398 69.2249 251.113 67.9717 250.68 66.8096C250.27 65.6475 249.711 64.6335 249.005 63.7676C248.299 62.8789 247.421 62.1953 246.373 61.7168C245.348 61.2155 244.129 60.9648 242.716 60.9648C241.212 60.9648 239.936 61.2839 238.888 61.9219C237.84 62.5599 236.974 63.4372 236.29 64.5537C235.629 65.6702 235.14 66.9691 234.821 68.4502C234.501 69.9313 234.342 71.515 234.342 73.2012ZM289.761 84.3438V39.5H298.032V92H290.547L289.761 84.3438ZM265.698 73.9189V73.2012C265.698 70.3984 266.028 67.8464 266.689 65.5449C267.35 63.2207 268.307 61.2269 269.56 59.5635C270.814 57.8773 272.34 56.5898 274.14 55.7012C275.941 54.7897 277.969 54.334 280.224 54.334C282.457 54.334 284.417 54.7669 286.103 55.6328C287.79 56.4987 289.225 57.7406 290.41 59.3584C291.595 60.9535 292.54 62.8675 293.247 65.1006C293.953 67.3109 294.455 69.7718 294.751 72.4834V74.7734C294.455 77.4167 293.953 79.832 293.247 82.0195C292.54 84.207 291.595 86.0983 290.41 87.6934C289.225 89.2884 287.778 90.5189 286.069 91.3848C284.383 92.2507 282.412 92.6836 280.156 92.6836C277.923 92.6836 275.906 92.2165 274.106 91.2822C272.329 90.348 270.814 89.0378 269.56 87.3516C268.307 85.6654 267.35 83.6829 266.689 81.4043C266.028 79.1029 265.698 76.6077 265.698 73.9189ZM273.935 73.2012V73.9189C273.935 75.6051 274.083 77.1774 274.38 78.6357C274.699 80.0941 275.189 81.3815 275.849 82.498C276.51 83.5918 277.365 84.4577 278.413 85.0957C279.484 85.7109 280.76 86.0186 282.241 86.0186C284.11 86.0186 285.648 85.6084 286.855 84.7881C288.063 83.9678 289.009 82.8626 289.692 81.4727C290.399 80.0599 290.877 78.4876 291.128 76.7559V70.5693C290.991 69.2249 290.706 67.9717 290.273 66.8096C289.863 65.6475 289.305 64.6335 288.598 63.7676C287.892 62.8789 287.015 62.1953 285.967 61.7168C284.941 61.2155 283.722 60.9648 282.309 60.9648C280.805 60.9648 279.529 61.2839 278.481 61.9219C277.433 62.5599 276.567 63.4372 275.884 64.5537C275.223 65.6702 274.733 66.9691 274.414 68.4502C274.095 69.9313 273.935 71.515 273.935 73.2012ZM317.528 87.9668L327.577 55.0176H336.395L321.561 97.6396C321.219 98.5511 320.775 99.5423 320.228 100.613C319.681 101.684 318.963 102.698 318.075 103.655C317.209 104.635 316.126 105.421 314.828 106.014C313.529 106.629 311.956 106.937 310.111 106.937C309.382 106.937 308.675 106.868 307.992 106.731C307.331 106.618 306.704 106.492 306.112 106.355L306.078 100.066C306.305 100.089 306.579 100.112 306.898 100.135C307.24 100.158 307.513 100.169 307.718 100.169C309.085 100.169 310.225 99.998 311.136 99.6562C312.048 99.3372 312.788 98.8132 313.358 98.084C313.95 97.3548 314.452 96.375 314.862 95.1445L317.528 87.9668ZM311.854 55.0176L320.638 82.7031L322.108 91.3848L316.4 92.8545L302.967 55.0176H311.854ZM378.497 42.2344V92H369.986V42.2344H378.497ZM394.117 42.2344V49.0703H354.503V42.2344H394.117ZM393.652 73.9189V73.1328C393.652 70.4668 394.039 67.9945 394.814 65.7158C395.588 63.4144 396.705 61.4206 398.163 59.7344C399.644 58.0254 401.445 56.7038 403.564 55.7695C405.706 54.8125 408.121 54.334 410.81 54.334C413.521 54.334 415.937 54.8125 418.056 55.7695C420.198 56.7038 422.009 58.0254 423.49 59.7344C424.972 61.4206 426.099 63.4144 426.874 65.7158C427.649 67.9945 428.036 70.4668 428.036 73.1328V73.9189C428.036 76.585 427.649 79.0573 426.874 81.3359C426.099 83.6146 424.972 85.6084 423.49 87.3174C422.009 89.0036 420.209 90.3252 418.09 91.2822C415.971 92.2165 413.567 92.6836 410.878 92.6836C408.167 92.6836 405.74 92.2165 403.598 91.2822C401.479 90.3252 399.679 89.0036 398.197 87.3174C396.716 85.6084 395.588 83.6146 394.814 81.3359C394.039 79.0573 393.652 76.585 393.652 73.9189ZM401.889 73.1328V73.9189C401.889 75.5824 402.06 77.1546 402.402 78.6357C402.743 80.1169 403.279 81.4157 404.008 82.5322C404.737 83.6488 405.671 84.526 406.811 85.1641C407.95 85.8021 409.306 86.1211 410.878 86.1211C412.405 86.1211 413.726 85.8021 414.843 85.1641C415.982 84.526 416.917 83.6488 417.646 82.5322C418.375 81.4157 418.91 80.1169 419.252 78.6357C419.617 77.1546 419.799 75.5824 419.799 73.9189V73.1328C419.799 71.4922 419.617 69.9427 419.252 68.4844C418.91 67.0033 418.363 65.693 417.612 64.5537C416.882 63.4144 415.948 62.5257 414.809 61.8877C413.692 61.2269 412.359 60.8965 410.81 60.8965C409.26 60.8965 407.916 61.2269 406.777 61.8877C405.66 62.5257 404.737 63.4144 404.008 64.5537C403.279 65.693 402.743 67.0033 402.402 68.4844C402.06 69.9427 401.889 71.4922 401.889 73.1328ZM445.276 87.9668L455.325 55.0176H464.143L449.309 97.6396C448.968 98.5511 448.523 99.5423 447.976 100.613C447.43 101.684 446.712 102.698 445.823 103.655C444.957 104.635 443.875 105.421 442.576 106.014C441.277 106.629 439.705 106.937 437.859 106.937C437.13 106.937 436.424 106.868 435.74 106.731C435.079 106.618 434.453 106.492 433.86 106.355L433.826 100.066C434.054 100.089 434.327 100.112 434.646 100.135C434.988 100.158 435.262 100.169 435.467 100.169C436.834 100.169 437.973 99.998 438.885 99.6562C439.796 99.3372 440.537 98.8132 441.106 98.084C441.699 97.3548 442.2 96.375 442.61 95.1445L445.276 87.9668ZM439.602 55.0176L448.387 82.7031L449.856 91.3848L444.148 92.8545L430.716 55.0176H439.602ZM489.757 81.9854C489.757 81.165 489.552 80.4245 489.142 79.7637C488.732 79.0801 487.946 78.4648 486.784 77.918C485.644 77.3711 483.958 76.8698 481.725 76.4141C479.765 75.9811 477.965 75.4684 476.325 74.876C474.707 74.2607 473.317 73.5202 472.155 72.6543C470.993 71.7884 470.093 70.763 469.454 69.5781C468.816 68.3932 468.497 67.026 468.497 65.4766C468.497 63.9727 468.828 62.5485 469.489 61.2041C470.149 59.8597 471.095 58.6748 472.326 57.6494C473.556 56.624 475.049 55.8151 476.803 55.2227C478.58 54.6302 480.563 54.334 482.75 54.334C485.849 54.334 488.504 54.8581 490.714 55.9062C492.947 56.9316 494.656 58.333 495.841 60.1104C497.026 61.8649 497.619 63.8473 497.619 66.0576H489.381C489.381 65.0778 489.131 64.1663 488.629 63.3232C488.151 62.4574 487.422 61.7624 486.442 61.2383C485.462 60.6914 484.232 60.418 482.75 60.418C481.338 60.418 480.164 60.6458 479.23 61.1016C478.318 61.5345 477.635 62.1042 477.179 62.8105C476.746 63.5169 476.53 64.2917 476.53 65.1348C476.53 65.75 476.644 66.3083 476.871 66.8096C477.122 67.2881 477.532 67.7324 478.102 68.1426C478.672 68.5299 479.446 68.8945 480.426 69.2363C481.429 69.5781 482.682 69.9085 484.186 70.2275C487.011 70.82 489.438 71.5833 491.466 72.5176C493.517 73.429 495.089 74.6139 496.183 76.0723C497.277 77.5078 497.824 79.3307 497.824 81.541C497.824 83.1816 497.47 84.6855 496.764 86.0527C496.08 87.3971 495.078 88.5706 493.756 89.5732C492.435 90.5531 490.851 91.3164 489.005 91.8633C487.182 92.4102 485.132 92.6836 482.853 92.6836C479.503 92.6836 476.666 92.0911 474.342 90.9062C472.018 89.6986 470.252 88.1605 469.044 86.292C467.859 84.4007 467.267 82.4411 467.267 80.4131H475.231C475.322 81.9398 475.744 83.1589 476.496 84.0703C477.27 84.959 478.227 85.6084 479.367 86.0186C480.529 86.4059 481.725 86.5996 482.955 86.5996C484.437 86.5996 485.678 86.4059 486.681 86.0186C487.684 85.6084 488.447 85.0615 488.971 84.3779C489.495 83.6715 489.757 82.874 489.757 81.9854Z" fill="#7829DF"/>
<defs>
<filter id="filter0_f_1_5" x="20.6097" y="50.7112" width="61.7334" height="61.3359" filterUnits="userSpaceOnUse" color-interpolation-filters="sRGB">
<feFlood flood-opacity="0" result="BackgroundImageFix"/>
<feBlend mode="normal" in="SourceGraphic" in2="BackgroundImageFix" result="shape"/>
<feGaussianBlur stdDeviation="2" result="effect1_foregroundBlur_1_5"/>
</filter>
</defs>
</svg>
